# File generated by ImageToStl.com - Free Image and 3D model conversion tools

o obj1
v 0 25 0
v 0.30779094 28.91086197 150
v 0.30779094 28.91086197 0
v 1.22358835 32.72542572 150
v 1.22358835 32.72542572 0
v 2.72483754 36.34976196 150
v 2.72483754 36.34976196 0
v 4.77457619 39.69462967 150
v 4.77457619 39.69462967 0
v 7.32233 42.67766953 150
v 7.32233 42.67766953 0
v 10.30536938 45.22542572 150
v 10.30536938 45.22542572 0
v 13.65023804 47.27516174 150
v 13.65023804 47.27516174 0
v 17.27457619 48.77641296 150
v 17.27457619 48.77641296 0
v 21.08913803 49.69221115 150
v 21.08913803 49.69221115 0
v 25 50 150
v 25 50 0
v 28.91086197 49.69221115 150
v 28.91086197 49.69221115 0
v 32.72542572 48.77641296 150
v 32.72542572 48.77641296 0
v 36.34976196 47.27516174 150
v 36.34976196 47.27516174 0
v 39.69462967 45.22542572 150
v 39.69462967 45.22542572 0
v 42.67766953 42.67766953 150
v 42.67766953 42.67766953 0
v 45.22542572 39.69462967 150
v 45.22542572 39.69462967 0
v 47.27516174 36.34976196 150
v 47.27516174 36.34976196 0
v 48.77641296 32.72542572 150
v 48.77641296 32.72542572 0
v 49.69221115 28.91086197 150
v 49.69221115 28.91086197 0
v 50 25 150
v 50 25 0
v 49.69221115 21.08913803 150
v 49.69221115 21.08913803 0
v 48.77641296 17.27457619 150
v 48.77641296 17.27457619 0
v 47.27516174 13.65023804 150
v 47.27516174 13.65023804 0
v 45.22542572 10.30536938 150
v 45.22542572 10.30536938 0
v 42.67766953 7.32233 150
v 42.67766953 7.32233 0
v 39.69462967 4.77457619 150
v 39.69462967 4.77457619 0
v 36.34976196 2.72483754 150
v 36.34976196 2.72483754 0
v 32.72542572 1.22358835 150
v 32.72542572 1.22358835 0
v 28.91086197 0.30779094 150
v 28.91086197 0.30779094 0
v 25 0 150
v 25 0 0
v 21.08913803 0.30779094 150
v 21.08913803 0.30779094 0
v 17.27457619 1.22358835 150
v 17.27457619 1.22358835 0
v 13.65023804 2.72483754 150
v 13.65023804 2.72483754 0
v 10.30536938 4.77457619 150
v 10.30536938 4.77457619 0
v 7.32233 7.32233 150
v 7.32233 7.32233 0
v 4.77457619 10.30536938 150
v 4.77457619 10.30536938 0
v 2.72483754 13.65023804 150
v 2.72483754 13.65023804 0
v 1.22358835 17.27457619 150
v 1.22358835 17.27457619 0
v 0.30779094 21.08913803 150
v 0.30779094 21.08913803 0
v 0 25 150
v 25 25 150
v 25 25 0
vn -0.99692 0.07846 0
vn -0.97237 0.23345 0
vn -0.92388 0.38268 0
vn -0.85264 0.5225 0
vn -0.76041 0.64945 0
vn -0.64945 0.76041 0
vn -0.5225 0.85264 0
vn -0.38268 0.92388 0
vn -0.23345 0.97237 0
vn -0.07846 0.99692 0
vn 0.07846 0.99692 -0
vn 0.23345 0.97237 -0
vn 0.38268 0.92388 -0
vn 0.5225 0.85264 -0
vn 0.64945 0.76041 -0
vn 0.76041 0.64945 -0
vn 0.85264 0.5225 -0
vn 0.92388 0.38268 -0
vn 0.97237 0.23345 -0
vn 0.99692 0.07846 -0
vn 0.99692 -0.07846 0
vn 0.97237 -0.23345 0
vn 0.92388 -0.38268 0
vn 0.85264 -0.5225 0
vn 0.76041 -0.64945 0
vn 0.64945 -0.76041 0
vn 0.5225 -0.85264 0
vn 0.38268 -0.92388 0
vn 0.23345 -0.97237 0
vn 0.07846 -0.99692 0
vn -0.07846 -0.99692 0
vn -0.23345 -0.97237 0
vn -0.38268 -0.92388 0
vn -0.5225 -0.85264 0
vn -0.64945 -0.76041 0
vn -0.76041 -0.64945 0
vn -0.85264 -0.5225 0
vn -0.92388 -0.38268 0
vn -0.97237 -0.23345 0
vn -0.99692 -0.07846 0
vn 0 0 1
vn 0 0 -1
f 1//1 2//1 3//1
f 3//2 2//2 4//2
f 3//2 4//2 5//2
f 5//3 4//3 6//3
f 5//3 6//3 7//3
f 7//4 6//4 8//4
f 7//4 8//4 9//4
f 9//5 8//5 10//5
f 9//5 10//5 11//5
f 11//6 10//6 12//6
f 11//6 12//6 13//6
f 13//7 12//7 14//7
f 13//7 14//7 15//7
f 15//8 14//8 16//8
f 15//8 16//8 17//8
f 17//9 16//9 18//9
f 17//9 18//9 19//9
f 19//10 18//10 20//10
f 19//10 20//10 21//10
f 21//11 20//11 22//11
f 21//11 22//11 23//11
f 23//12 22//12 24//12
f 23//12 24//12 25//12
f 25//13 24//13 26//13
f 25//13 26//13 27//13
f 27//14 26//14 28//14
f 27//14 28//14 29//14
f 29//15 28//15 30//15
f 29//15 30//15 31//15
f 31//16 30//16 32//16
f 31//16 32//16 33//16
f 33//17 32//17 34//17
f 33//17 34//17 35//17
f 35//18 34//18 36//18
f 35//18 36//18 37//18
f 37//19 36//19 38//19
f 37//19 38//19 39//19
f 39//20 38//20 40//20
f 39//20 40//20 41//20
f 41//21 40//21 42//21
f 41//21 42//21 43//21
f 43//22 42//22 44//22
f 43//22 44//22 45//22
f 45//23 44//23 46//23
f 45//23 46//23 47//23
f 47//24 46//24 48//24
f 47//24 48//24 49//24
f 49//25 48//25 50//25
f 49//25 50//25 51//25
f 51//26 50//26 52//26
f 51//26 52//26 53//26
f 53//27 52//27 54//27
f 53//27 54//27 55//27
f 55//28 54//28 56//28
f 55//28 56//28 57//28
f 57//29 56//29 58//29
f 57//29 58//29 59//29
f 59//30 58//30 60//30
f 59//30 60//30 61//30
f 61//31 60//31 62//31
f 61//31 62//31 63//31
f 63//32 62//32 64//32
f 63//32 64//32 65//32
f 65//33 64//33 66//33
f 65//33 66//33 67//33
f 67//34 66//34 68//34
f 67//34 68//34 69//34
f 69//35 68//35 70//35
f 69//35 70//35 71//35
f 71//36 70//36 72//36
f 71//36 72//36 73//36
f 73//37 72//37 74//37
f 73//37 74//37 75//37
f 75//38 74//38 76//38
f 75//38 76//38 77//38
f 77//39 76//39 78//39
f 77//39 78//39 79//39
f 79//40 78//40 80//40
f 79//40 80//40 1//40
f 1//1 80//1 2//1
f 40//41 38//41 81//41
f 46//41 44//41 81//41
f 81//41 44//41 42//41
f 81//41 42//41 40//41
f 52//41 50//41 81//41
f 81//41 50//41 48//41
f 81//41 48//41 46//41
f 58//41 56//41 81//41
f 81//41 56//41 54//41
f 81//41 54//41 52//41
f 64//41 62//41 81//41
f 81//41 62//41 60//41
f 81//41 60//41 58//41
f 70//41 68//41 81//41
f 81//41 68//41 66//41
f 81//41 66//41 64//41
f 76//41 74//41 81//41
f 81//41 74//41 72//41
f 81//41 72//41 70//41
f 2//41 80//41 81//41
f 81//41 80//41 78//41
f 81//41 78//41 76//41
f 8//41 6//41 81//41
f 81//41 6//41 4//41
f 81//41 4//41 2//41
f 14//41 12//41 81//41
f 81//41 12//41 10//41
f 81//41 10//41 8//41
f 20//41 18//41 81//41
f 81//41 18//41 16//41
f 81//41 16//41 14//41
f 26//41 24//41 81//41
f 81//41 24//41 22//41
f 81//41 22//41 20//41
f 32//41 30//41 81//41
f 81//41 30//41 28//41
f 81//41 28//41 26//41
f 38//41 36//41 81//41
f 81//41 36//41 34//41
f 81//41 34//41 32//41
f 41//42 43//42 82//42
f 35//42 37//42 82//42
f 82//42 37//42 39//42
f 82//42 39//42 41//42
f 29//42 31//42 82//42
f 82//42 31//42 33//42
f 82//42 33//42 35//42
f 23//42 25//42 82//42
f 82//42 25//42 27//42
f 82//42 27//42 29//42
f 17//42 19//42 82//42
f 82//42 19//42 21//42
f 82//42 21//42 23//42
f 11//42 13//42 82//42
f 82//42 13//42 15//42
f 82//42 15//42 17//42
f 5//42 7//42 82//42
f 82//42 7//42 9//42
f 82//42 9//42 11//42
f 79//42 1//42 82//42
f 82//42 1//42 3//42
f 82//42 3//42 5//42
f 73//42 75//42 82//42
f 82//42 75//42 77//42
f 82//42 77//42 79//42
f 67//42 69//42 82//42
f 82//42 69//42 71//42
f 82//42 71//42 73//42
f 61//42 63//42 82//42
f 82//42 63//42 65//42
f 82//42 65//42 67//42
f 55//42 57//42 82//42
f 82//42 57//42 59//42
f 82//42 59//42 61//42
f 49//42 51//42 82//42
f 82//42 51//42 53//42
f 82//42 53//42 55//42
f 43//42 45//42 82//42
f 82//42 45//42 47//42
f 82//42 47//42 49//42
# Vertices: 82, normals: 42, texture coordinates: 0, faces: 160

